<svg height="50" viewBox="0 0 50 50" width="50" xmlns="http://www.w3.org/2000/svg"><path d="m24.6787879 0c-13.6272727 0-24.6787879 11.3953125-24.6787879 25.453125 0 11.2453125 7.07121212 20.784375 16.8787879 24.15 1.2348485.234375 1.6848485-.5515625 1.6848485-1.2265625 0-.6046875-.0212122-2.2046875-.0333334-4.328125-6.8651515 1.5375-8.3136363-3.4125-8.3136363-3.4125-1.12272731-2.940625-2.74090912-3.7234375-2.74090912-3.7234375-2.2409091-1.578125.16969697-1.546875.16969697-1.546875 2.47727275.1796875 3.78030305 2.6234375 3.78030305 2.6234375 2.2015151 3.8890625 5.7772727 2.765625 7.1833333 2.1140625.2242424-1.64375.8621212-2.765625 1.5666667-3.4015625-5.4803031-.6421875-11.24242427-2.8265625-11.24242427-12.5796875 0-2.778125.96212122-5.0515625 2.54090907-6.8296875-.2545454-.64375-1.1015151-3.2328125.2424243-6.7359375 0 0 2.0712121-.684375 6.7863636 2.609375 1.9681818-.565625 4.080303-.846875 6.1787879-.8578125 2.0969697.0109375 4.2075757.2921875 6.1787879.8578125 4.7121212-3.29375 6.780303-2.609375 6.780303-2.609375 1.3469697 3.503125.5 6.0921875.2469697 6.7359375 1.5818182 1.778125 2.5363636 4.0515625 2.5363636 6.8296875 0 9.778125-5.7712121 11.9296875-11.2681818 12.559375.8848485.7859375 1.6742424 2.3390625 1.6742424 4.7125 0 3.403125-.030303 6.1484375-.030303 6.9828125 0 .68125.4454545 1.4734375 1.6969697 1.225 9.8-3.3734375 16.8651515-12.90625 16.8651515-24.1484375 0-14.0578125-11.0515151-25.453125-24.6833333-25.453125" fill-rule="evenodd"/></svg>