<svg height="50" viewBox="0 0 50 50" width="50" xmlns="http://www.w3.org/2000/svg" xmlns:xlink="http://www.w3.org/1999/xlink"><mask id="a" fill="#fff"><path d="m0 0h50v49.8333333h-50z" fill="#fff" fill-rule="evenodd"/></mask><path d="m42.6166667 42.6138889h-7.5166667v-13.0416667c0-3.8472222-1.6361111-5.0361111-3.7472222-5.0361111-2.2305556 0-4.4166667 1.6777778-4.4166667 5.1305556v12.9472222h-7.5194444v-23.8805556h7.2305555v3.3083334h.0972222c.725-1.4694445 3.2666667-3.9777778 7.1444445-3.9777778 4.1944444 0 8.7277778 2.4861111 8.7277778 9.7805555zm-31.4722223-27.2055556c-2.3944444 0-4.33333329-1.8222222-4.33333329-4.3166666 0-2.4916667 1.93888889-4.3166667 4.33333329-4.3166667 2.3944445 0 4.3333334 1.825 4.3333334 4.3166667 0 2.4944444-1.9388889 4.3166666-4.3333334 4.3166666zm-3.75833329 27.1888889h7.51666669v-23.8805555h-7.51666669zm38.92499999-42.5972222h-42.61944443c-2.03888889 0-3.69166667 1.65277778-3.69166667 3.69166667v42.61666663c0 2.0388889 1.65277778 3.6916667 3.69166667 3.6916667h42.61944443c2.0388889 0 3.6888889-1.6527778 3.6888889-3.6916667v-42.61666663c0-2.03888889-1.65-3.69166667-3.6888889-3.69166667z" fill-rule="evenodd" mask="url(#a)"/></svg>